<?xml version="1.0" standalone="no"?><!DOCTYPE svg PUBLIC "-//W3C//DTD SVG 1.1//EN" "http://www.w3.org/Graphics/SVG/1.1/DTD/svg11.dtd"><svg t="1529890422210" class="icon" style="" viewBox="0 0 1024 1024" version="1.1" xmlns="http://www.w3.org/2000/svg" p-id="1952" xmlns:xlink="http://www.w3.org/1999/xlink" width="200" height="200"><defs><style type="text/css"></style></defs><path d="M512 0C229.2224 0 0 229.2224 0 512s229.2224 512 512 512 512-229.2224 512-512S794.7776 0 512 0z m202.973867 546.133333H580.266667a34.133333 34.133333 0 0 0-34.133334 34.133334v134.7072c0 16.9984-11.6224 32.768-28.398933 35.498666A34.1504 34.1504 0 0 1 477.866667 716.8v-136.533333a34.133333 34.133333 0 0 0-34.133334-34.133334h-134.7072c-16.9984 0-32.768-11.6224-35.498666-28.398933A34.1504 34.1504 0 0 1 307.2 477.866667h136.533333a34.133333 34.133333 0 0 0 34.133334-34.133334v-134.7072c0-16.9984 11.6224-32.768 28.398933-35.498666A34.184533 34.184533 0 0 1 546.133333 307.2v136.533333a34.133333 34.133333 0 0 0 34.133334 34.133334h136.533333a34.1504 34.1504 0 0 1 33.672533 39.867733c-2.747733 16.7936-18.500267 28.398933-35.498666 28.398933z" fill="#4CAF50" p-id="1953"></path></svg>