<?xml version="1.0" standalone="no"?><!DOCTYPE svg PUBLIC "-//W3C//DTD SVG 1.1//EN" "http://www.w3.org/Graphics/SVG/1.1/DTD/svg11.dtd"><svg t="1530239101089" class="icon" style="" viewBox="0 0 1024 1024" version="1.1" xmlns="http://www.w3.org/2000/svg" p-id="5422" xmlns:xlink="http://www.w3.org/1999/xlink" width="16" height="16"><defs><style type="text/css"></style></defs><path d="M424.377 794.533c16.020 0 29.127-13.107 29.127-29.127v-412.635c0-16.020-13.107-29.127-29.127-29.127s-29.127 13.107-29.127 29.127v412.635c0 16.020 13.107 29.127 29.127 29.127zM613.702 794.533c16.020 0 29.127-13.107 29.127-29.127v-412.635c0-16.020-13.107-29.127-29.127-29.127s-29.127 13.107-29.127 29.127v412.635c0 16.020 13.107 29.127 29.127 29.127z" fill="#ffffff" p-id="5423"></path><path d="M865.166 206.529h-296.611v-46.967c0-20.025-16.384-36.409-36.409-36.409h-38.229c-20.025 0-36.409 16.384-36.409 36.409v46.967h-298.067c-16.020 0-29.127 13.107-29.127 29.127s13.107 29.127 29.127 29.127h42.598v556.449c0 43.205 36.287 78.279 80.949 78.279h459.602c44.661 0 80.949-35.074 80.949-78.279v-556.449h41.628c16.020 0 29.127-13.107 29.127-29.127s-13.107-29.127-29.127-29.127zM765.406 821.233c0 10.801-10.437 20.025-22.695 20.025h-459.602c-12.379 0-22.695-9.223-22.695-20.025v-556.449h505.113v556.449z" fill="#ffffff" p-id="5424"></path></svg>